<svg version="1" xmlns="http://www.w3.org/2000/svg" width="682.667" height="682.667" viewBox="0 0 512.000000 512.000000"><path d="M237.1 1c-38.7 3.2-75.7 14.6-107.8 33C108 46.3 93.2 57.7 75.4 75.4c-29.1 29.2-48.9 61.2-61.9 100.1C4.5 202.4.7 226.5.7 256s3.8 53.6 12.8 80.5c13 38.9 32.8 70.9 61.9 100.1 29.2 29.1 61.2 48.9 100.1 61.9 26.9 9 51 12.8 80.5 12.8s53.6-3.8 80.5-12.8c38.9-13 70.9-32.8 100.1-61.9 17.7-17.7 29.1-32.6 41.3-53.9 31.3-54.4 41.3-120.5 27.5-182.7-6.5-29.4-20.8-62.5-37.4-87-17.4-25.6-43.4-51.6-69-69-31.4-21.3-71.6-36.5-110-41.4-15-2-38.8-2.7-51.9-1.6zM272 23.5c15.5 1.9 30.8 5.9 48.4 12.5 14.1 5.2 36.4 15.4 50 22.8 29.5 16 57.9 39.9 75.5 63.7 8.8 11.9 19.2 31.8 23.4 44.6 15.1 45.9 9.6 95.1-16.7 150.5-10.4 21.7-20.1 35.9-35.1 50.6-15 14.9-33.5 27.5-70.9 48.2-25.5 14.1-34.5 24.1-34.6 38.1 0 7.7 3.5 15.2 11.8 25.6 3.4 4.3 6.2 8.2 6.2 8.8 0 1.6-7.8 1.3-14.1-.5-9.2-2.7-19-8.4-25.6-14.9-5.2-5.2-6.4-7.2-8.2-12.9-1.4-4.6-2.1-9.5-2.1-15 0-22 15-43.5 47-67.3 23.1-17.2 37-30.8 51.8-50.7 41.8-55.9 48.6-118.4 18.1-165.6-22.5-34.9-69-65.3-114.9-75.1-9-2-13.5-2.3-31-2.3-23.5 0-32.5 1.4-53.5 8.5-55.3 18.8-96.1 65.2-105.1 119.8-2.2 13.6-1.5 37 1.6 51.6 4.1 19.6 13.1 41.6 24.7 60.2 5 8.2 5.4 8.4 23.5 13.2 41.6 11.1 68 28.4 90.1 59.3 6 8.5 15.4 26.2 19.3 36.4 6.6 17.6-.3 29.9-17.6 31.2-9.4.6-17.6-1.1-38-8-47.9-16.3-70.9-30.4-79.7-48.8-1.7-3.5-6.3-9.3-12.4-15.7-55.4-58-79.7-131.7-65.9-200.1 10.7-53.1 45.4-103.7 92.5-134.9 26.8-17.8 61.3-30.7 91.5-34.2 12.4-1.4 36.7-1.2 50 .4z"/><path d="M155.1 388.9c-1.8 3.4-1.3 9.5 1.2 13.1 3.8 5.7 8.7 7.5 19.9 7.5 5.3 0 10-.4 10.4-.8 3.3-3.2-17.1-19-27.3-21.2-2.5-.5-3.4-.2-4.2 1.4z"/></svg>