<svg version="1" xmlns="http://www.w3.org/2000/svg" width="682.667" height="682.667" viewBox="0 0 512.000000 512.000000"><path d="M220.5 23.6C200 26 173.9 34 154.5 43.8 91.9 75.1 48.6 132.4 36.9 199.5c-4 22.9-2.7 54.3 3.2 79.2 9.4 39.7 32.4 80.2 64.8 114.5 5.9 6.2 10.4 12 12.3 16 8.6 17.1 31.1 30.9 75.8 46.2 28.3 9.7 37.1 11.2 47.6 8.1 8.4-2.5 13.4-9.2 13.4-18 0-5.7-1.9-11.4-8.5-25-7.5-15.6-16.3-28.4-27.9-40.2-14.9-15.5-26.8-23.8-45.8-32.1-8.2-3.6-15.3-5.9-41.1-13.3-6.8-2-6.8-2-11.9-9.7-6.1-9.3-15.6-28.9-19.1-39.2-6.5-19.2-8.7-32.8-8.7-53 0-37 14-70.4 41.4-98.9 23-23.7 52.3-39.7 86.7-47.3 9-1.9 13.3-2.2 31.9-2.2 18.5 0 22.9.3 31.7 2.2 23 5 45.3 14.7 66.8 29 25.9 17.2 42.9 35.4 54 57.7 19.2 38.8 16.5 82.8-8 128.4-16 29.8-37.8 54.2-69 77.1-26.2 19.2-40 36.3-45 55.5-2.6 10.2-1.5 22.5 2.7 30.9 4.2 8.3 16.1 17.4 28.4 21.7 7.2 2.6 17.4 3.7 17.4 2 0-.7-3-4.9-6.7-9.4-8.6-10.6-11.4-16.8-11.5-25 0-4.9.6-7.5 2.7-11.6 5.1-10.2 13.6-16.9 38.5-30.6 33.8-18.5 52.2-31.6 68-48.2 12.1-12.8 19.9-24.1 28.7-41.7 25-49.9 32.9-94.3 24.2-137-6.2-30.9-22.7-60.5-47-84.6-12.6-12.5-20.7-19-38-30.6-20.7-13.8-54-29.7-81-38.7-26-8.6-58.5-11.7-87.4-8.1zm-56.7 365.2c10.1 3.9 25.8 17 23.3 19.5-1.6 1.6-17.2 2.1-21.5.7-7.9-2.6-13.4-10.1-12-16.4 1.3-6.1 2.7-6.6 10.2-3.8z"/><path d="M232 103.5c-21.3 3-39.9 10.1-57.5 21.8C136.4 150.8 113 194.4 113 240c0 26 6.7 48.5 20.8 69.7 3.9 5.9 5 6.5 23.6 11.3 30.2 7.9 53.2 20.5 72.1 39.5 5.5 5.5 11.1 11.7 12.5 13.8 2.5 3.6 2.6 3.7 9 3.7 50.5 0 98.2-28.9 122-74.3 7.7-14.4 13.2-32.2 14.5-46.2.3-3.9.9-8.3 1.2-9.9.5-2.8.4-2.9-2.8-2.2-1.9.4-5.9 1.1-8.8 1.6-3 .5-7.9 2.1-10.9 3.6-2.9 1.4-5.6 2.3-5.9 2-.3-.3-2.4-7.1-4.7-15.1l-4.1-14.6-11-5.9c-8.9-4.8-11.9-5.9-15.7-6-7.2 0-6.4 2.3 4.2 12.1 5 4.5 8.7 8.6 8.3 9-.7.7-20 9.2-26.9 11.9-1.9.8-3.3-.8-12.8-14.1-9.6-13.3-13.6-17.4-13.6-13.7 0 .7 1.5 5.9 3.3 11.6l3.3 10.3 11.5 6.1c6.2 3.3 12.2 6.6 13.1 7.3 1.6 1 .4 2.8-11.2 16.4l-13 15.2V306.8l-9 19.2c-4.9 10.5-9 19.6-9 20.1s-1.1.9-2.4.9c-2.6 0-25.8-2.8-29.2-3.5-1.9-.4-2.4-2.4-5.4-18.7-1.8-10.1-3.9-21.5-4.6-25.3-.7-3.9-1.8-12.4-2.5-19-.6-6.6-1.3-12.1-1.4-12.3-.2-.2-8.3-.8-18.2-1.3-9.8-.5-19.7-1.1-22-1.4l-4.1-.6-.7-5.2c-.3-2.9-1.3-9-2-13.7-.7-4.7-1.6-10.8-2-13.6l-.6-5.1 9.9-10.9 10-11 14.4-1.7c17.1-2.1 20.7-2.1 23.3-.4 1.1.8 6.3 3.7 11.5 6.5l9.6 5.1 7.4-2c4.1-1.1 9.2-2.4 11.3-3l3.7-1V198h-13v-3.4c0-5-3.1-5.4-4.5-.6-.9 3-1.5 3.5-4 3.5-3.2 0-3.3-.1-8-10.7-2.1-4.6-2.9-5.5-4.5-5.1-2.6.7-2.5 1.7.5 8.1 1.4 3 2.5 5.8 2.5 6.2 0 .4-1.3 1.2-2.8 1.8-2.7.9-3 .7-6.7-5-4.5-6.9-6.8-8.1-14.4-7.3-8.4 1-8.6 1.1-14.3 8.5-2.9 3.9-6 7-6.9 7-.9 0-3.7.3-6.3.6l-4.7.7.3-10.9.3-10.9 6.7-.6c3.8-.3 7-.7 7.2-1 .2-.2.6-1.6.9-3 .5-1.9.1-3.1-1.3-4.4-1.1-1-2-2.3-2-3 0-1.5 9.3-5.7 20-8.9 5.1-1.6 9.5-3.7 11.2-5.3l2.7-2.6 1 2.5c.8 2.2 1.7 2.6 7.7 3.2 6.4.7 6.8.5 9.5-2 2-1.9 3.2-4.6 4.4-9.5 1.8-8.3 1.8-8.6.1-9.2-1-.4-2.8 1.2-5.1 4.5l-3.7 5.1-2.6-2.7-2.7-2.6-4 4.4c-3.2 3.5-4.9 4.6-8.2 5.1l-4.3.7v-3.6c0-2 1.5-6.9 3.4-10.9l3.3-7.3 9.9-4.1c8.9-3.8 11.2-4.3 22.7-5.3 7-.5 13.2-1 13.6-1 .5 0 1.4 2.1 2.1 4.6 1.1 3.9 1.1 5-.3 8-3.3 6.9-2.9 7.4 7.5 7.4 9.1 0 9.1 0 14.2-3.9 3.3-2.5 7.8-4.7 12.6-6.1 4.1-1.2 7.9-2.4 8.4-2.7.4-.3-1.1-1.8-3.5-3.3-27.9-17.3-60-24.1-91.9-19.5zm-45.2 25.1c.2 2.5-.3 3.7-2.4 5.3-1.5 1.1-3.2 2.1-3.9 2.1-1.2 0-5.3-6.6-4.5-7.3 3.1-2.4 6-3.7 8-3.5 2 .2 2.6.9 2.8 3.4zm24.4 10.7c1.5 3.9 3 9 3.3 11.2.6 3.9.5 4.1-3.4 6.2l-4.1 2.1-2.1-2.9c-1.7-2.4-2.1-4.5-2.2-11.8-.1-9.2.9-12.1 4.2-12.1 1.1 0 2.5 2.4 4.3 7.3zm-11 16.9c-.5.5-2.2 1-3.8 1.1-4.6.3-4.5-3.4.3-7.9l3.8-3.6.3 4.7c.2 2.6-.1 5.2-.6 5.7zM315 313.7c-1.2 9.8-2.3 17.9-2.4 18-.1.1-2.4.5-5.2.8l-5 .7.4-4.3c.2-2.4 1-9.3 1.8-15.2.8-5.9 1.4-11.2 1.4-11.7s2.4-2.7 5.3-4.9c3.7-2.9 5.3-3.6 5.5-2.6.2.8-.6 9.4-1.8 19.2z"/></svg>